# xmcd
#
# Track frame offsets:
#	150
#	15470
#	33730
#	50119
#	65974
#	82862
#	100034
#	119388
#	139788
#	154653
#	172051
#	191311
#	207636
#	226191
#	249575
#	266865
#	285591
#	302986
#
# Disc length: 4264
#
# Revision: 1
# Processed by: cddbd v1.5.1PL0 Copyright (c) Steve Scherf et al.
# Submitted via: dBpowerAMP V4.0
# Normalized: r0:TDELIM( - )
#
DISCID=0710a612
DTITLE=Various Artist - TMF Hitzone 5
DYEAR=1900
DGENRE=Dance
TTITLE0=Vengaboys - Boom Boom Boom Boom
TTITLE1=Dru Hill - How Deep Is Your Love
TTITLE2=Cardigans - My Favorite Game
TTITLE3=Tamperer and Maya - If You Buy This Record Your Life Will Be Better (Fabulous)
TTITLE4=E-Life - More Days To Come
TTITLE5=Hollis P. Monroe - I'm Lonely
TTITLE6=Janet - Every Time
TTITLE7=Steps - Tragedy
TTITLE8=ATB - 9PM Till I Come
TTITLE9=Another Level - Guess I Was A Fool
TTITLE10=Extince - Viervoeters
TTITLE11=Jessica - How Will I Know
TTITLE12=Jessica - How Will I Know
TTITLE13=Faithless - Take The Long Way Home
TTITLE14=E-Type - Angels Crying
TTITLE15=Loona - Hijo De La Luna
TTITLE16=X-Treme - Love Song
TTITLE17=Volumia! - Hou Me Vast
EXTD=
EXTT0=
EXTT1=
EXTT2=
EXTT3=
EXTT4=
EXTT5=
EXTT6=
EXTT7=
EXTT8=
EXTT9=
EXTT10=
EXTT11=
EXTT12=
EXTT13=
EXTT14=
EXTT15=
EXTT16=
EXTT17=
PLAYORDER=
